<svg width="293" height="293" viewBox="0 0 293 293" fill="none" xmlns="http://www.w3.org/2000/svg">
<path fillRule="evenodd" clipRule="evenodd" d="M0.864258 272.631C0.864258 283.677 9.81856 292.631 20.8643 292.631L272.863 292.631C282.269 292.631 290.158 286.138 292.294 277.39L284.017 270.271L292.863 262.662V261.922L284.017 254.313L292.863 246.704V245.963L284.017 238.355L292.863 230.746V230.003L284.017 222.394L292.863 214.785V214.048L284.017 206.44L292.863 198.831V198.089L284.017 190.481L292.863 182.872V182.131L284.017 174.523L292.863 166.914V166.171L284.017 158.563L292.863 150.954V150.212L284.017 142.604L292.863 134.995V134.255L284.017 126.646L292.863 119.037V118.296L284.017 110.687L292.863 103.079V102.338L284.017 94.7295L292.863 87.1208V86.3813L284.017 78.7726L292.863 71.1639V70.4233L284.017 62.8147L292.863 55.206V54.2404L284.017 46.6318L292.863 39.0231V37.3387L284.017 29.7301L292.863 22.1214V20.9685L284.017 13.3598L289.116 8.97397C285.486 3.92209 279.559 0.631836 272.863 0.631836L20.8643 0.631836C9.81856 0.631836 0.864258 9.58615 0.864258 20.6318L0.864258 272.631Z" fill="#F0F8FF"/>
</svg>
